<svg width="18" height="18" viewBox="0 0 18 18" fill="none" xmlns="http://www.w3.org/2000/svg">
<g clip-path="url(#clip0)">
<path d="M9 18C13.9706 18 18 13.9706 18 9C18 4.02944 13.9706 0 9 0C4.02944 0 0 4.02944 0 9C0 13.9706 4.02944 18 9 18Z" fill="#F0F0F0"/>
<path d="M8.21739 9C8.21739 9 2.64129 15.3652 2.63602 15.3639C4.26467 16.9926 6.5147 18 9 18C13.9705 18 18 13.9705 18 9H8.21739Z" fill="#D80027"/>
<path d="M2.636 2.63605C-0.878708 6.15076 -0.878708 11.8493 2.636 15.364C4.08841 13.9116 5.48528 12.5147 8.99999 9.00003L2.636 2.63605Z" fill="#0052B4"/>
</g>
<defs>
<clipPath id="clip0">
<rect width="18" height="18" fill="white"/>
</clipPath>
</defs>
</svg>
