<svg width="18" height="18" viewBox="0 0 18 18" fill="none" xmlns="http://www.w3.org/2000/svg">
<path d="M0.559784 12.1304C1.83142 15.5576 5.13031 18 8.99999 18C12.8697 18 16.1686 15.5576 17.4402 12.1304L8.99999 11.3478L0.559784 12.1304Z" fill="#FFDA44"/>
<path d="M8.99999 0C5.13031 0 1.83142 2.44237 0.559784 5.86958L8.99999 6.65216L17.4402 5.86955C16.1686 2.44237 12.8697 0 8.99999 0Z" fill="black"/>
<path d="M0.559793 5.86957C0.198035 6.84456 0 7.8991 0 8.99999C0 10.1009 0.198035 11.1554 0.559793 12.1304H17.4402C17.802 11.1554 18 10.1009 18 8.99999C18 7.8991 17.802 6.84456 17.4402 5.86957H0.559793Z" fill="#D80027"/>
</svg>
