<svg width="250" height="64" viewBox="0 0 250 64" fill="none" xmlns="http://www.w3.org/2000/svg">
<g clip-path="url(#clip0)">
<path d="M240.909 63.4199H9.0909C4.07013 63.4199 0 58.2017 0 51.7648V11.6551C0 5.21815 4.07013 1.90389e-05 9.0909 1.90389e-05H240.909C245.93 1.90389e-05 250 5.21815 250 11.6551V51.7648C250 58.2017 245.93 63.4199 240.909 63.4199Z" fill="#231F20"/>
<path d="M14.1329 38.8005L27.5325 38.7755C27.6353 39.768 28.1173 40.5333 28.9791 41.0707C29.8409 41.6081 31.0177 41.8765 32.5095 41.8765C34.0013 41.8765 35.1168 41.6575 35.8563 41.2193C36.5954 40.7811 36.9655 40.1238 36.9655 39.2468C36.9655 38.4696 36.6436 37.8454 36.0009 37.3741C35.3578 36.9029 34.3674 36.5596 33.0305 36.3442L24.7719 35.0296C21.3462 34.5015 18.7671 33.3218 17.0348 31.4897C15.3024 29.6583 14.4363 27.207 14.4363 24.1372C14.4363 20.0449 15.7455 17.0574 18.3645 15.1761C20.9834 13.2947 25.1565 12.354 30.8843 12.354C36.8301 12.354 41.2505 13.2928 44.1466 15.1705C47.0421 17.0481 48.606 19.9706 48.8377 23.9393H35.9815C35.8398 22.7895 35.2998 21.9225 34.3611 21.3389C33.4224 20.7559 32.1039 20.4637 30.4066 20.4637C29.1719 20.4637 28.201 20.6822 27.4941 21.1185C26.7866 21.5548 26.4332 22.1435 26.4332 22.8844C26.4332 23.576 26.7063 24.1029 27.2531 24.4649C27.7993 24.8269 28.9343 25.1646 30.6579 25.4774L40.7301 27.3131C43.888 27.8918 46.247 29.0697 47.807 30.8462C49.3665 32.6233 50.1465 35.0159 50.1465 38.0239C50.1465 42.5195 48.5884 45.8172 45.4728 47.9164C42.3573 50.0149 37.4455 51.0649 30.7382 51.0649C25.4087 51.0649 21.3189 50.0075 18.4677 47.8939C15.6165 45.7797 14.1714 42.7486 14.1329 38.8005Z" fill="white"/>
<path d="M61.905 49.9466V22.6212H51.5598V13.3529H83.3433V22.6212H72.9669V49.9466H61.905Z" fill="white"/>
<path d="M86.5294 49.9466V13.3529H116.787V22.3415H97.5917V26.696H113.141V35.7246H97.5917V40.5185H117.722V49.9466H86.5294Z" fill="white"/>
<path d="M132.502 29.1729H138.966C140.654 29.1729 141.842 28.917 142.531 28.4038C143.22 27.8907 143.564 27.0306 143.564 25.8227C143.564 24.6318 143.239 23.8003 142.589 23.3284C141.938 22.8571 140.64 22.6212 138.696 22.6212H132.502V29.1729ZM143.051 13.3529C145.532 13.3529 147.518 13.5058 149.01 13.8111C150.502 14.1163 151.665 14.5907 152.501 15.2343C153.568 16.0433 154.381 17.1288 154.941 18.4901C155.5 19.8522 155.779 21.424 155.779 23.2061C155.779 25.3683 155.361 27.2703 154.526 28.9126C153.69 30.5549 152.54 31.739 151.074 32.465C152.335 33.141 153.22 33.9774 153.729 34.9749C154.237 35.9724 154.536 37.732 154.626 40.2538C154.639 40.5341 154.652 40.9217 154.665 41.4161C154.844 46.1963 155.345 48.8504 156.166 49.3779V49.9466H143.873C143.503 49.1726 143.3 47.6732 143.262 45.4485C143.236 44.147 143.191 43.142 143.128 42.4336C143.012 41.099 142.66 40.1602 142.073 39.6165C141.486 39.0729 140.502 38.8007 139.121 38.8007H132.502V49.9466H121.284V13.3529H143.051Z" fill="white"/>
<path d="M184.286 28.6936C184.106 26.4345 183.483 24.7111 182.416 23.5238C181.349 22.3366 179.89 21.7423 178.039 21.7423C175.674 21.7423 173.865 22.5925 172.611 24.2929C171.358 25.9932 170.732 28.4451 170.732 31.6473C170.732 34.8333 171.358 37.2684 172.612 38.9519C173.867 40.636 175.677 41.4775 178.043 41.4775C179.753 41.4775 181.133 40.9775 182.181 39.9769C183.229 38.9768 183.921 37.4925 184.255 35.5249H197.031C196.451 40.5942 194.555 44.425 191.343 47.0174C188.13 49.6097 183.698 50.9056 178.045 50.9056C171.697 50.9056 166.908 49.2839 163.676 46.0405C160.444 42.797 158.828 37.9975 158.828 31.6424C158.828 25.271 160.443 20.4633 163.674 17.2199C166.904 13.9765 171.692 12.3541 178.037 12.3541C183.958 12.3541 188.539 13.7611 191.783 16.5751C195.026 19.389 196.744 23.4289 196.937 28.6936H184.286Z" fill="white"/>
<path d="M201.123 49.9466V13.3529H212.185V26.0169H224.806V13.3529H235.867V49.9466H224.806V35.1653H212.185V49.9466H201.123Z" fill="white"/>
<path d="M241.174 15.2528H241.056V16.0057H241.219C241.336 16.0057 241.425 15.9733 241.486 15.9082C241.546 15.8432 241.576 15.7482 241.576 15.6234C241.576 15.496 241.544 15.4024 241.48 15.3425C241.415 15.2827 241.313 15.2528 241.174 15.2528ZM241.292 14.6325C241.644 14.6325 241.913 14.7118 242.099 14.8705C242.284 15.0291 242.377 15.2606 242.377 15.5649C242.377 15.7678 242.333 15.9433 242.246 16.0916C242.159 16.2398 242.036 16.3491 241.878 16.4193L242.419 17.8043H241.57L241.132 16.5871H241.056V17.8043H240.277V14.6325H241.292ZM243.086 16.2847C243.086 15.9728 243.04 15.6753 242.949 15.392C242.858 15.1088 242.727 14.858 242.557 14.6397C242.38 14.4136 242.183 14.2427 241.965 14.1271C241.747 14.0115 241.515 13.9536 241.267 13.9536C241.018 13.9536 240.785 14.0102 240.568 14.1232C240.351 14.2362 240.159 14.4032 239.99 14.6241C239.816 14.8502 239.682 15.1062 239.589 15.392C239.496 15.6779 239.449 15.9754 239.449 16.2847C239.449 16.594 239.495 16.8896 239.588 17.1715C239.68 17.4535 239.812 17.7049 239.984 17.9258C240.159 18.1493 240.355 18.3202 240.574 18.4384C240.793 18.5567 241.024 18.6158 241.267 18.6158C241.509 18.6158 241.74 18.556 241.962 18.4365C242.184 18.3169 242.384 18.1441 242.563 17.918C242.735 17.7024 242.865 17.4561 242.953 17.1793C243.042 16.9026 243.086 16.6044 243.086 16.2847ZM241.261 13.3528C241.576 13.3528 241.872 13.4257 242.151 13.5713C242.43 13.717 242.677 13.9289 242.894 14.2072C243.105 14.4803 243.268 14.7963 243.382 15.1552C243.497 15.5142 243.554 15.8913 243.554 16.2866C243.554 16.6872 243.498 17.0624 243.385 17.4122C243.273 17.762 243.109 18.0709 242.894 18.3388C242.669 18.6197 242.416 18.8362 242.134 18.9884C241.852 19.1405 241.561 19.2166 241.261 19.2166C240.959 19.2166 240.671 19.1425 240.398 18.9942C240.124 18.8459 239.877 18.6301 239.656 18.3466C239.437 18.0683 239.269 17.7523 239.154 17.3985C239.038 17.0449 238.981 16.6742 238.981 16.2866C238.981 15.894 239.039 15.5181 239.155 15.1591C239.272 14.8002 239.441 14.4778 239.662 14.1916C239.871 13.9185 240.112 13.7105 240.386 13.5674C240.659 13.4244 240.951 13.3528 241.261 13.3528Z" fill="white"/>
</g>
<defs>
<clipPath id="clip0">
<rect width="187.5" height="47.5649" fill="white" transform="matrix(1.33333 0 0 -1.33333 0 63.4199)"/>
</clipPath>
</defs>
</svg>
